<svg xmlns="http://www.w3.org/2000/svg" version="1.1" viewBox="-5.0 -10.0 110.0 135.0">
 <path d="m78.676 45.02h-57.352c-4.3633 0-6.6797 5.332-3.5156 8.4961 0.90234 0.90234 2.1484 1.4648 3.5156 1.4648h57.355c4.3633 0 6.6797-5.332 3.5156-8.4961-0.90625-0.90234-2.1484-1.4648-3.5195-1.4648zm-21.766 18.809c-6.1367-6.1406-16.68-1.7695-16.68 6.9102 0 8.6836 10.543 13.047 16.68 6.9102 3.8164-3.8164 3.8164-10.004 0-13.82zm0-41.477c-6.1367-6.1367-16.68-1.7695-16.68 6.9102 0 8.6836 10.543 13.047 16.68 6.9102 3.8164-3.8164 3.8164-10.004 0-13.82z" fill-rule="evenodd"/>
<text x="0.0" y="117.5" font-size="5.0" font-weight="bold" font-family="Arbeit Regular, Helvetica, Arial-Unicode, Arial, Sans-serif" fill="#000000">Created by The Teacher</text><text x="0.0" y="122.5" font-size="5.0" font-weight="bold" font-family="Arbeit Regular, Helvetica, Arial-Unicode, Arial, Sans-serif" fill="#000000">from Noun Project</text></svg>