<svg xmlns="http://www.w3.org/2000/svg" version="1.1" viewBox="-5.0 -10.0 110.0 135.0">
 <path d="m49.699 44.523-13.922-13.922 0.003906 0.003907c-1.3359-1.3867-3.5039-1.5391-5.0195-0.35156-0.80078 0.65234-1.2852 1.6133-1.3359 2.6484-0.050781 1.0312 0.33594 2.0352 1.0664 2.7656l14.031 14.031c0.082031 0.078125 0.125 0.1875 0.125 0.30078s-0.042969 0.22266-0.125 0.30078l-13.922 13.922 0.003907-0.003906c-1.3867 1.3359-1.5391 3.5039-0.35156 5.0195 0.65234 0.80078 1.6133 1.2852 2.6484 1.3359 1.0312 0.050781 2.0352-0.33594 2.7656-1.0664l14.031-14.031c0.078125-0.082031 0.1875-0.125 0.30078-0.125s0.22266 0.042969 0.30078 0.125l13.922 13.922-0.003906-0.003907c1.3359 1.3867 3.5039 1.5391 5.0195 0.35156 0.80078-0.65234 1.2852-1.6133 1.3359-2.6484 0.050781-1.0312-0.33594-2.0352-1.0664-2.7656l-14.031-14.031c-0.082031-0.078125-0.125-0.1875-0.125-0.30078s0.042969-0.22266 0.125-0.30078l13.922-13.922-0.003907 0.003906c1.3867-1.3359 1.5391-3.5039 0.35156-5.0195-0.65234-0.80078-1.6133-1.2852-2.6484-1.3359-1.0312-0.050781-2.0352 0.33594-2.7656 1.0664l-14.031 14.031c-0.078125 0.082031-0.1875 0.125-0.30078 0.125s-0.22266-0.042969-0.30078-0.125z"/>
<text x="0.0" y="117.5" font-size="5.0" font-weight="bold" font-family="Arbeit Regular, Helvetica, Arial-Unicode, Arial, Sans-serif" fill="#000000">Created by Mustofa Bayu</text><text x="0.0" y="122.5" font-size="5.0" font-weight="bold" font-family="Arbeit Regular, Helvetica, Arial-Unicode, Arial, Sans-serif" fill="#000000">from Noun Project</text></svg>