<svg xmlns:inkscape="http://www.inkscape.org/namespaces/inkscape" xmlns:sodipodi="http://sodipodi.sourceforge.net/DTD/sodipodi-0.dtd" xmlns="http://www.w3.org/2000/svg" xmlns:svg="http://www.w3.org/2000/svg" xmlns:rdf="http://www.w3.org/1999/02/22-rdf-syntax-ns#" xmlns:cc="http://creativecommons.org/ns#" xmlns:dc="http://purl.org/dc/elements/1.1/" version="1.1" viewBox="0 0 25.399999 31.75000125" xml:space="preserve" x="0px" y="0px"><g transform="translate(0,-280.06665)"><path style="color:#000000;" d="m 12.699745,284.30102 a 1.0583333,1.0583333 0 0 0 -1.05627,1.05626 v 6.35155 h -6.35155 a 1.0583333,1.0583333 0 0 0 -1.05885,1.05885 1.0583333,1.0583333 0 0 0 1.05885,1.05679 h 6.35155 v 6.35155 a 1.0583333,1.0583333 0 0 0 1.05627,1.05626 1.0583333,1.0583333 0 0 0 1.05885,-1.05626 v -6.35155 h 6.34948 a 1.0583333,1.0583333 0 0 0 1.05885,-1.05679 1.0583333,1.0583333 0 0 0 -1.05885,-1.05885 h -6.34948 v -6.35155 a 1.0583333,1.0583333 0 0 0 -1.05885,-1.05626 z" fill="#000000" stroke-linecap="round" stroke-linejoin="round"/></g><text x="0" y="40.400001" fill="#000000" font-size="5px" font-weight="bold" font-family="'Helvetica Neue', Helvetica, Arial-Unicode, Arial, Sans-serif">Created by achmad</text><text x="0" y="45.400001" fill="#000000" font-size="5px" font-weight="bold" font-family="'Helvetica Neue', Helvetica, Arial-Unicode, Arial, Sans-serif">from the Noun Project</text></svg>